<svg width="25" height="24" viewBox="0 0 25 24" fill="none" xmlns="http://www.w3.org/2000/svg">
<path d="M6.46881 0.157222C6.59064 0.380923 6.58608 0.579771 6.55538 0.837896C6.49051 1.06507 6.40509 1.27601 6.31565 1.49004C6.29278 1.54678 6.26992 1.60353 6.24636 1.66199C6.19028 1.8008 6.13347 1.93907 6.07592 2.07697C6.10753 2.09512 6.13914 2.11327 6.1717 2.13198C6.49764 2.34152 6.90181 2.73694 7.03609 3.16294C7.04204 3.33118 7.04209 3.42505 6.98157 3.5769C6.79247 3.79167 6.64516 3.87913 6.39323 3.93921C6.3296 3.95485 6.26597 3.9705 6.20042 3.98663C6.13221 4.0024 6.064 4.01817 5.99372 4.03442C5.92268 4.05151 5.85165 4.06869 5.78064 4.08594C5.59435 4.13095 5.4079 4.1748 5.22139 4.21844C5.06885 4.25432 4.91644 4.29101 4.76403 4.32774C4.44952 4.40353 4.1349 4.47869 3.82009 4.55263C3.73648 4.5723 3.73648 4.5723 3.65117 4.59237C3.5188 4.62033 3.5188 4.62033 3.41226 4.62033C3.42256 4.66925 3.43286 4.71818 3.44347 4.76859C3.68689 5.93985 3.68689 5.93985 3.67862 6.38111C3.70626 6.36968 3.73389 6.35824 3.76236 6.34645C5.52007 5.63023 7.35231 5.29953 9.19241 5.09721C9.22838 5.09323 9.26435 5.08925 9.30142 5.08515C10.3405 4.97205 11.3792 4.93278 12.4221 4.93417C12.4775 4.93421 12.5329 4.93425 12.5899 4.93429C15.7031 4.94025 18.9708 5.2631 21.8981 6.64197C21.9075 6.58536 21.9169 6.52876 21.9266 6.47043C21.9615 6.26063 21.9966 6.05087 22.0317 5.84112C22.0469 5.7503 22.0621 5.65946 22.0772 5.56861C22.0988 5.4381 22.1207 5.30765 22.1426 5.1772C22.1557 5.09865 22.1688 5.0201 22.1823 4.93917C22.2177 4.75076 22.2177 4.75076 22.271 4.62033C22.2372 4.61284 22.2034 4.60535 22.1686 4.59764C21.7617 4.50721 21.3552 4.41449 20.9488 4.32091C20.8278 4.29315 20.7068 4.26567 20.5858 4.23821C20.3743 4.19013 20.163 4.14095 19.9518 4.09112C19.869 4.07173 19.7861 4.05268 19.7031 4.03397C19.5857 4.00742 19.4686 3.97966 19.3514 3.95163C19.2838 3.93594 19.2163 3.92026 19.1466 3.9041C18.9541 3.83256 18.8457 3.74705 18.7017 3.5769C18.644 3.37349 18.6569 3.1969 18.7017 2.98997C18.805 2.8053 18.9339 2.67467 19.0746 2.53347C19.132 2.46929 19.132 2.46929 19.1905 2.4038C19.4832 2.07697 19.4832 2.07697 19.6073 2.07697C19.5856 2.02129 19.5856 2.02129 19.5633 1.96448C19.4973 1.79453 19.4325 1.62396 19.3676 1.45336C19.3447 1.39497 19.3219 1.33659 19.2983 1.27644C19.1715 0.940046 19.0891 0.687776 19.1279 0.316182C19.2344 0.125521 19.3022 0.0670643 19.4853 0.0115772C19.6835 -0.0126955 19.8396 0.0153572 20.035 0.0623776C20.089 0.0750923 20.089 0.0750923 20.1441 0.0880639C20.2622 0.116103 20.3802 0.145148 20.4982 0.17429C20.5807 0.194261 20.6632 0.214198 20.7458 0.234104C20.9184 0.275918 21.0909 0.318253 21.2634 0.360937C21.484 0.41548 21.7048 0.468538 21.9258 0.521186C22.0961 0.561982 22.2663 0.603653 22.4365 0.64558C22.5179 0.665499 22.5993 0.685127 22.6807 0.704453C22.7947 0.731618 22.9085 0.75998 23.0223 0.788651C23.087 0.804488 23.1516 0.820325 23.2183 0.836642C23.4057 0.909291 23.514 0.99951 23.6561 1.16397C23.8644 1.67395 23.5548 2.68038 23.4645 3.22306C23.4454 3.339 23.4264 3.45494 23.4074 3.57089C23.3576 3.87382 23.3075 4.17666 23.2573 4.47948C23.206 4.7894 23.1551 5.0994 23.1041 5.4094C23.0043 6.01598 22.9042 6.62247 22.8037 7.2289C22.8451 7.24852 22.8865 7.26815 22.9291 7.28837C23.5296 7.59054 24.0562 8.22488 24.335 8.93505C24.4945 9.45461 24.4571 10.0499 24.4594 10.5964C24.4607 10.7327 24.462 10.8691 24.4634 11.0055C24.4657 11.29 24.4668 11.5745 24.467 11.8591C24.4676 12.2228 24.4731 12.5861 24.4798 12.9497C24.4841 13.2309 24.4851 13.5119 24.4851 13.7931C24.4857 13.9272 24.4875 14.0612 24.4906 14.1952C24.5118 15.2103 24.5118 15.2103 24.3289 15.4939C24.1277 15.7128 23.9028 15.8417 23.6561 15.9676C23.6073 15.9965 23.5585 16.0254 23.5081 16.0552C23.3916 16.124 23.2745 16.1813 23.1533 16.2366C23.1088 16.2576 23.0643 16.2786 23.0184 16.3002C20.8919 17.2798 18.6341 17.6754 16.3843 17.946C16.3293 17.9527 16.3293 17.9527 16.2733 17.9595C15.7529 18.0199 15.7529 18.0199 15.6291 17.91C15.6003 17.873 15.5716 17.8359 15.5419 17.7977C14.5783 16.7046 13.2515 16.4186 11.9855 16.4769C10.9868 16.5566 9.92899 17.1202 9.21905 17.9893C6.46841 18.0881 3.16618 17.2394 0.762521 15.6007C0.698523 15.5571 0.698523 15.5571 0.633233 15.5126C0.60098 15.4906 0.568728 15.4686 0.535498 15.4459C0.528069 14.6432 0.522401 13.8404 0.518937 13.0376C0.517274 12.6648 0.515021 12.292 0.511385 11.9192C0.507894 11.5589 0.505997 11.1987 0.505172 10.8384C0.504584 10.7014 0.503438 10.5645 0.501703 10.4275C0.49097 9.5444 0.517486 8.9034 0.986449 8.19005C1.50846 7.56314 2.1154 7.15416 2.77298 6.7724C2.70905 6.17296 2.62631 5.5836 2.52528 4.99179C2.50196 4.85496 2.47901 4.71805 2.45615 4.5811C2.39125 4.19254 2.32598 3.80408 2.2599 3.41582C2.21917 3.17641 2.17906 2.93687 2.13932 2.69721C2.1242 2.6067 2.10884 2.51625 2.09325 2.42586C2.0715 2.29969 2.05059 2.17331 2.02971 2.04692C2.01761 1.97539 2.00551 1.90385 1.99305 1.83015C1.97078 1.58654 1.97614 1.40159 2.02715 1.16397C2.21293 0.915585 2.39597 0.853533 2.66101 0.788651C2.6969 0.779603 2.7328 0.770556 2.76979 0.761234C2.88773 0.731765 3.00586 0.703662 3.12404 0.675625C3.20651 0.655434 3.28897 0.63518 3.37142 0.614865C3.54396 0.572571 3.71659 0.530931 3.88931 0.489773C4.11024 0.437089 4.33092 0.382961 4.55154 0.32836C4.7217 0.286383 4.89197 0.24509 5.06227 0.204008C5.14367 0.184305 5.22504 0.164413 5.30638 0.144326C5.42024 0.116329 5.53422 0.089237 5.64827 0.0623776C5.713 0.0468002 5.77774 0.0312229 5.84443 0.0151734C6.08356 -0.0184563 6.2657 -0.00636083 6.46881 0.157222ZM8.41995 6.64197C8.4556 6.9449 8.55153 7.20819 8.65323 7.48492C8.67089 7.53367 8.68855 7.58243 8.70675 7.63266C8.76295 7.7876 8.81952 7.94233 8.8761 8.09707C8.91438 8.20239 8.95264 8.30772 8.99087 8.41308C9.0844 8.67065 9.17827 8.92804 9.27232 9.18533C9.71673 9.14213 9.71673 9.14213 10.1603 9.08751C10.8762 8.9899 11.5889 8.95385 12.3089 8.92447C12.3089 8.08516 12.3089 7.24586 12.3089 6.38111C11.0146 6.3588 9.70257 6.4135 8.41995 6.64197ZM13.2145 6.38111C13.2145 7.22042 13.2145 8.05973 13.2145 8.92447C13.7794 8.9833 13.7794 8.9833 14.3444 9.0415C14.7558 9.08463 15.1619 9.13845 15.569 9.22574C15.7271 9.25199 15.8787 9.25469 16.038 9.25054C16.0649 9.18638 16.0918 9.12221 16.1195 9.0561C16.2193 8.81794 16.3192 8.57987 16.4191 8.34183C16.4623 8.2388 16.5055 8.13576 16.5487 8.0327C16.6108 7.88452 16.673 7.73643 16.7352 7.58834C16.7641 7.51925 16.7641 7.51925 16.7935 7.44876C16.8731 7.25974 16.9538 7.07995 17.0502 6.90283C17.0502 6.83827 17.0502 6.7737 17.0502 6.70719C15.769 6.53305 14.504 6.41035 13.2145 6.38111ZM6.45549 6.97212C6.39501 6.98649 6.33453 7.00087 6.27221 7.01568C5.37179 7.23729 4.48205 7.53915 3.62535 7.94626C3.83399 8.21198 4.05675 8.44504 4.29127 8.67584C4.32882 8.71298 4.36637 8.75012 4.40506 8.78839C4.68935 9.06858 4.97638 9.34384 5.26767 9.61304C5.38875 9.72551 5.50595 9.84229 5.62227 9.96204C5.66845 10.0085 5.66845 10.0085 5.71556 10.0559C5.77448 10.1152 5.83272 10.1757 5.89013 10.2372C5.97907 10.3304 5.97907 10.3304 6.1292 10.4244C6.29131 10.3972 6.29131 10.3972 6.44884 10.294C6.50831 10.2614 6.56778 10.2287 6.62905 10.1951C6.66105 10.1769 6.69305 10.1587 6.72602 10.14C7.25678 9.83948 7.80442 9.63871 8.36668 9.44619C8.23218 8.90547 8.0446 8.39853 7.85392 7.88512C7.82171 7.7978 7.78953 7.71046 7.75736 7.62312C7.61341 7.22793 7.61341 7.22793 7.46103 6.83761C7.11562 6.81785 6.79385 6.89133 6.45549 6.97212ZM18.0624 6.90283C17.8138 7.39171 17.5907 7.89408 17.3743 8.40502C17.3191 8.53506 17.2633 8.66467 17.2074 8.7943C17.1723 8.87707 17.1371 8.95986 17.102 9.04267C17.0703 9.11707 17.0386 9.19147 17.0059 9.26812C16.9854 9.32688 16.9648 9.38564 16.9437 9.44619C16.9932 9.60502 16.9932 9.60502 17.1857 9.6589C17.2681 9.69017 17.3506 9.72115 17.4331 9.75188C17.8301 9.90455 18.184 10.0952 18.5462 10.3447C18.7302 10.439 18.7838 10.4487 18.9681 10.3592C19.1172 10.2479 19.2571 10.1233 19.3976 9.99643C19.4793 9.92418 19.5611 9.852 19.6429 9.7799C19.6826 9.74474 19.7224 9.70958 19.7633 9.67336C19.9023 9.55153 20.0439 9.43503 20.1867 9.31983C20.4776 9.08426 20.7671 8.84623 21.0557 8.60655C21.1011 8.56923 21.1464 8.53191 21.1931 8.49346C21.2353 8.45832 21.2775 8.42317 21.321 8.38696C21.3591 8.35545 21.3972 8.32394 21.4364 8.29147C21.5325 8.21273 21.5325 8.21273 21.5785 8.07669C20.4288 7.53923 19.2792 7.13354 18.0624 6.90283ZM2.1337 8.98969C1.96491 9.20531 1.87885 9.37566 1.83071 9.67036C1.90022 10.1113 2.12758 10.3863 2.41338 10.6527C2.98212 11.1092 3.63369 11.3949 4.27462 11.6594C4.3211 11.6786 4.36758 11.6978 4.41546 11.7176C4.66757 11.8181 4.90653 11.8898 5.17028 11.9243C5.21792 11.8218 5.2643 11.7184 5.31012 11.6146C5.33608 11.5571 5.36204 11.4996 5.38878 11.4403C5.44846 11.2795 5.44846 11.2795 5.41042 11.139C5.29921 10.9623 5.17024 10.8465 5.02377 10.7138C4.96069 10.6559 4.89763 10.598 4.83461 10.5401C4.80202 10.5103 4.76943 10.4805 4.73584 10.4498C4.57801 10.3043 4.42301 10.1545 4.26796 10.0046C4.20574 9.94463 4.14352 9.88468 4.08129 9.82474C3.98521 9.73206 3.88915 9.63935 3.7931 9.54662C3.57771 9.33869 3.36201 9.13127 3.14589 8.92447C3.10043 8.88093 3.05497 8.83738 3.00813 8.79252C2.60355 8.41168 2.48867 8.60684 2.1337 8.98969ZM22.4841 8.72883C21.4824 9.5418 20.4904 10.3721 19.5008 11.207C19.5887 11.4437 19.6766 11.6804 19.7672 11.9243C20.6353 11.8185 21.5179 11.3385 22.271 10.8157C22.3196 10.7822 22.3681 10.7488 22.4181 10.7143C22.6973 10.5053 22.9175 10.2617 23.0701 9.90269C23.113 9.65739 23.1076 9.52795 23.0071 9.30863C22.8558 9.04504 22.7162 8.88563 22.4841 8.72883ZM9.69851 10.2288C9.64637 10.2382 9.59423 10.2476 9.54051 10.2573C8.41095 10.4663 7.01604 10.7492 6.18247 11.7939C6.05622 11.9865 6.05622 11.9865 6.07592 12.2504C6.68997 12.4112 7.30613 12.5383 7.92928 12.6334C8.031 12.6489 8.13266 12.665 8.23431 12.6811C9.56469 12.8767 10.9016 12.9248 12.2401 12.9196C12.4306 12.9188 12.6211 12.9193 12.8115 12.92C14.1779 12.9245 15.544 12.8651 16.9004 12.6498C16.936 12.6444 16.9716 12.6389 17.0082 12.6333C17.4771 12.5611 17.944 12.4778 18.4087 12.3727C18.4779 12.3572 18.4779 12.3572 18.5486 12.3414C18.6537 12.3158 18.7578 12.2838 18.8615 12.2504C18.8791 12.2074 18.8967 12.1643 18.9148 12.12C18.555 11.2991 17.6552 10.9116 16.9624 10.6542C16.7095 10.5667 16.4545 10.4931 16.1979 10.4244C16.1304 10.4063 16.1304 10.4063 16.0615 10.3878C15.9218 10.351 15.7819 10.316 15.6418 10.2817C15.6013 10.2716 15.5608 10.2615 15.5191 10.2511C14.5729 10.0329 13.6183 10.0089 12.6585 10.0127C12.5673 10.0129 12.5673 10.0129 12.4742 10.013C11.5392 10.0157 10.6239 10.0535 9.69851 10.2288Z" fill="#90FE95"/>
<path d="M14.7748 18.7797C15.4634 19.3597 15.965 20.0896 16.2677 21.0002C16.2884 21.0622 16.309 21.1242 16.3303 21.1881C16.5605 22.027 16.4961 22.9262 16.4774 23.7948C13.8048 24.0684 11.1824 24.0684 8.50986 23.7948C8.47596 22.2343 8.47516 20.8046 9.45338 19.5731C9.49541 19.5199 9.53744 19.4668 9.58074 19.4119C10.9432 17.7768 13.134 17.5562 14.7748 18.7797Z" fill="#90FE95"/>
<path d="M24.4697 17C24.4765 17.3819 24.4812 17.7637 24.4844 18.1457C24.4857 18.2754 24.4876 18.4051 24.4899 18.5349C24.4931 18.7221 24.4946 18.9092 24.4958 19.0965C24.4972 19.1538 24.4986 19.2112 24.5 19.2703C24.5002 19.8707 24.257 20.2918 23.8604 20.7193C22.3542 22.1649 19.3911 23 17.3558 23C17.355 22.9599 17.3542 22.9198 17.3534 22.8784C17.3258 21.6026 17.2582 20.4532 16.6195 19.3233C16.5535 19.2018 16.5535 19.2018 16.5 19.0367C16.8838 18.9654 17.2687 18.908 17.6554 18.8572C19.9653 18.5518 22.2166 18.1545 24.3117 17.0519C24.4162 17 24.4162 17 24.4697 17Z" fill="#90FE95"/>
<path d="M0.521873 17C0.727021 17.0699 0.922611 17.147 1.11865 17.2416C3.09232 18.1893 5.2976 18.5315 7.43685 18.8023C7.79252 18.8475 8.14625 18.9032 8.5 18.9626C8.41816 19.1824 8.32173 19.3853 8.21554 19.5935C7.88118 20.2722 7.70255 21.005 7.67989 21.7679C7.67765 21.84 7.6754 21.9121 7.67309 21.9864C7.67096 22.0614 7.66884 22.1364 7.66671 22.2114C7.6644 22.288 7.66206 22.3646 7.65971 22.4411C7.65405 22.6274 7.64858 22.8137 7.64329 23C5.34578 22.6658 2.48466 22.2221 0.831845 20.3402C0.554383 19.9233 0.491098 19.5554 0.500957 19.0535C0.50126 18.9945 0.501563 18.9355 0.501876 18.8746C0.503066 18.6878 0.505752 18.5011 0.508487 18.3143C0.509562 18.1869 0.510539 18.0595 0.511415 17.9321C0.513765 17.6214 0.51734 17.3107 0.521873 17Z" fill="#90FE95"/>
</svg>
