<svg width="25" height="29" viewBox="0 0 25 29" fill="none" xmlns="http://www.w3.org/2000/svg">
<path d="M12.484 0C12.6201 0.0194079 12.6624 0.0405611 12.7539 0.141547C12.8634 0.294234 12.9334 0.471277 13.0093 0.643399C13.0441 0.720594 13.0788 0.79778 13.1136 0.874956C13.13 0.91169 13.1464 0.948423 13.1633 0.986269C13.2062 1.08086 13.2512 1.17396 13.2973 1.26692C13.3588 1.39682 13.3588 1.39682 13.3588 1.47336C13.3978 1.47739 13.4369 1.48143 13.4771 1.48559C13.6228 1.50078 13.7685 1.51653 13.9141 1.53245C13.977 1.53925 14.0399 1.54589 14.1028 1.55237C14.1936 1.56176 14.2843 1.5717 14.375 1.58174C14.4028 1.58449 14.4306 1.58725 14.4593 1.59009C14.642 1.61102 14.787 1.65431 14.9511 1.74124C15.0115 1.86602 15.0055 1.94705 14.9882 2.08566C14.868 2.27757 14.7043 2.41416 14.5257 2.54504C14.1742 2.81522 14.1742 2.81522 13.9513 3.19547C13.8985 3.60946 14.0229 4.06216 14.1282 4.45926C14.1597 4.58364 14.1771 4.67242 14.1477 4.79866C14.0994 4.87931 14.0994 4.87931 13.9883 4.95584C13.7891 4.9833 13.6539 4.90906 13.4849 4.81084C13.431 4.78083 13.377 4.75083 13.3231 4.72085C13.2388 4.67332 13.1547 4.62554 13.0708 4.57745C12.9893 4.531 12.9074 4.48552 12.8253 4.44011C12.8004 4.42548 12.7756 4.41086 12.7499 4.39579C12.6326 4.33134 12.5635 4.30166 12.431 4.32627C12.3094 4.3882 12.1903 4.45286 12.0731 4.52322C12.026 4.5509 11.9787 4.57855 11.9315 4.60619C11.858 4.6495 11.7847 4.69295 11.7114 4.73671C11.6401 4.7792 11.5685 4.82107 11.4969 4.86286C11.4752 4.87601 11.4536 4.88917 11.4313 4.90272C11.2905 4.98412 11.1866 5.01385 11.0259 4.99411C10.9104 4.9038 10.8647 4.83368 10.8407 4.68796C10.8581 4.58126 10.8783 4.47774 10.9013 4.37239C10.9137 4.30891 10.926 4.2454 10.9381 4.18187C10.9573 4.08224 10.9771 3.98309 10.9995 3.88417C11.091 3.51781 11.091 3.51781 11.028 3.15768C10.9304 3.01283 10.8089 2.89855 10.6777 2.78678C10.5961 2.71708 10.5212 2.64086 10.4455 2.56448C10.3693 2.49024 10.2928 2.41657 10.215 2.3442C10.0941 2.22496 10.0094 2.14013 10 1.96204C10.0294 1.79931 10.0505 1.76408 10.1742 1.6647C10.2911 1.63037 10.2911 1.63037 10.428 1.60924C10.4525 1.6053 10.477 1.60136 10.5022 1.59731C10.5803 1.5849 10.6584 1.57337 10.7366 1.56186C10.7884 1.55372 10.8402 1.54552 10.892 1.53727C11.1459 1.49729 11.3999 1.46182 11.6554 1.43509C11.6652 1.40242 11.675 1.36974 11.6851 1.33608C11.7558 1.12776 11.8548 0.93365 11.9504 0.736651C11.9864 0.662477 12.0219 0.588108 12.0575 0.513717C12.0804 0.466292 12.1033 0.418879 12.1262 0.371479C12.1469 0.32865 12.1676 0.285821 12.1889 0.241695C12.2746 0.0851688 12.309 0.0267929 12.484 0Z" fill="#9D9C9C"/>
<path d="M10.0744 7.01042C10.1616 7.0094 10.1616 7.0094 10.2507 7.00837C10.4419 7.0066 10.6331 7.00713 10.8243 7.00784C10.9241 7.00753 11.0239 7.00722 11.1237 7.0068C11.437 7.00547 11.7504 7.00574 12.0637 7.00705C12.3858 7.00838 12.7078 7.00714 13.0299 7.00461C13.3076 7.00251 13.5852 7.00195 13.8629 7.00261C14.0283 7.003 14.1936 7.00267 14.3589 7.00122C14.5435 6.99985 14.728 7.001 14.9125 7.00277C14.9665 7.00186 15.0204 7.00094 15.076 7C15.5017 7.00829 15.8292 7.18818 16.1541 7.62204C16.1847 7.67935 16.2153 7.73666 16.2469 7.7957C16.2785 7.853 16.3102 7.91031 16.3428 7.96935C16.5235 8.37152 16.5379 8.73585 16.5352 9.2159C16.5352 9.28313 16.5352 9.35037 16.5352 9.41964C16.5351 9.64112 16.5344 9.86259 16.5336 10.0841C16.5334 10.2379 16.5332 10.3918 16.5331 10.5456C16.5328 10.9501 16.5318 11.3544 16.5307 11.7589C16.5296 12.1717 16.5292 12.5846 16.5287 12.9975C16.5276 13.8072 16.5259 14.6169 16.5237 15.4267C16.5516 15.4263 16.5794 15.4259 16.608 15.4256C17.2866 15.4169 17.9652 15.4105 18.6438 15.4064C18.972 15.4043 19.3002 15.4016 19.6284 15.3971C19.9453 15.3929 20.2622 15.3905 20.5791 15.3895C20.6998 15.3888 20.8205 15.3874 20.9412 15.3853C21.1108 15.3824 21.2802 15.3821 21.4498 15.3822C21.4993 15.3808 21.5488 15.3794 21.5998 15.378C21.9871 15.3824 22.3199 15.542 22.6106 15.9554C22.9538 16.5246 22.9894 17.0893 22.9881 17.84C22.9886 17.932 22.989 18.0239 22.9894 18.1187C22.9906 18.4219 22.9907 18.7252 22.9906 19.0284C22.9908 19.1864 22.9911 19.3443 22.9915 19.5023C22.9924 19.9987 22.9926 20.4952 22.9922 20.9916C22.9919 21.5021 22.993 22.0125 22.9949 22.5229C22.9965 22.9626 22.997 23.4023 22.9968 23.842C22.9967 24.104 22.9971 24.3659 22.9982 24.6279C22.9994 24.9205 22.9989 25.2129 22.998 25.5055C22.9986 25.5911 22.9993 25.6768 23 25.765C22.9956 26.3927 22.9055 26.9222 22.627 27.3948C22.2168 27.9941 21.7821 27.9834 21.2492 27.9801C21.1708 27.9805 21.0924 27.981 21.0139 27.9816C20.7988 27.9829 20.5836 27.9827 20.3684 27.9823C20.1362 27.9821 19.904 27.9832 19.6718 27.9842C19.217 27.9858 18.7622 27.9862 18.3074 27.986C17.9377 27.9859 17.568 27.9862 17.1983 27.9868C17.0918 27.987 16.9853 27.9871 16.8788 27.9873C16.7993 27.9874 16.7993 27.9874 16.7182 27.9875C15.7157 27.989 14.7132 27.9889 13.7107 27.9884C12.7937 27.988 11.8768 27.9896 10.9599 27.9922C10.0182 27.9948 9.07659 27.996 8.13494 27.9956C7.60633 27.9955 7.07773 27.9959 6.54913 27.9978C6.09908 27.9995 5.64905 27.9998 5.199 27.9983C4.96945 27.9976 4.73991 27.9975 4.51035 27.9991C4.30004 28.0006 4.08975 28.0002 3.87943 27.9984C3.80352 27.9981 3.72761 27.9984 3.6517 27.9995C3.16984 28.0058 2.75322 27.9508 2.38367 27.4206C2.11631 26.982 2.00765 26.5088 2.00687 25.9103C2.0066 25.8575 2.00633 25.8048 2.00605 25.7504C2.00533 25.5751 2.00569 25.3998 2.00605 25.2245C2.00576 25.0982 2.00541 24.9719 2.005 24.8456C2.0041 24.5036 2.00416 24.1616 2.00444 23.8196C2.0046 23.5337 2.00429 23.2478 2.00399 22.9619C2.00328 22.2872 2.00336 21.6125 2.00393 20.9378C2.00451 20.2426 2.0038 19.5475 2.00245 18.8523C2.00134 18.2546 2.001 17.6569 2.0013 17.0592C2.00147 16.7026 2.00135 16.346 2.00048 15.9893C1.9997 15.6539 1.9999 15.3185 2.00085 14.9831C2.00103 14.8603 2.00088 14.7375 2.00035 14.6148C1.99743 13.8795 2.01995 13.3592 2.30855 12.7522C2.33483 12.7114 2.36111 12.6706 2.38819 12.6286C2.42664 12.5663 2.42664 12.5663 2.46586 12.5027C2.82048 12.1041 3.15383 12.0158 3.58363 12.0257C3.63672 12.0256 3.68982 12.0256 3.74452 12.0255C3.91857 12.0257 4.09258 12.0282 4.26662 12.0306C4.38786 12.0312 4.50911 12.0317 4.63035 12.032C4.94838 12.0332 5.26639 12.0362 5.58441 12.0397C5.90936 12.0429 6.23431 12.0444 6.55927 12.0459C7.19607 12.0493 7.83286 12.0546 8.46965 12.0612C8.46921 12.0185 8.46876 11.9757 8.4683 11.9317C8.46383 11.4848 8.4608 11.0378 8.45859 10.5909C8.45758 10.4243 8.45621 10.2578 8.45446 10.0912C8.45201 9.85107 8.45088 9.61098 8.44999 9.37081C8.44895 9.297 8.44791 9.22319 8.44684 9.14715C8.44672 8.58199 8.5366 8.1958 8.75182 7.74311C8.79124 7.68197 8.79124 7.68197 8.83146 7.6196C8.85709 7.57803 8.88272 7.53646 8.90913 7.49364C9.27869 7.07827 9.62705 7.00619 10.0744 7.01042ZM10.0805 9.63496C10.0805 14.8522 10.0805 20.0694 10.0805 25.4448C11.6752 25.4448 13.2699 25.4448 14.9129 25.4448C14.9129 20.2275 14.9129 15.0103 14.9129 9.63496C13.3182 9.63496 11.7235 9.63496 10.0805 9.63496ZM3.6372 14.644C3.6372 18.2083 3.6372 21.7725 3.6372 25.4448C5.23191 25.4448 6.82662 25.4448 8.46965 25.4448C8.46965 21.8805 8.46965 18.3163 8.46965 14.644C6.87495 14.644 5.28024 14.644 3.6372 14.644ZM16.5237 17.9312C16.5237 20.4107 16.5237 22.8901 16.5237 25.4448C18.1184 25.4448 19.7132 25.4448 21.3562 25.4448C21.3562 22.9653 21.3562 20.4858 21.3562 17.9312C19.7615 17.9312 18.1668 17.9312 16.5237 17.9312Z" fill="#9D9C9C"/>
</svg>
