<svg width="65" height="83" viewBox="0 0 65 83" fill="none" xmlns="http://www.w3.org/2000/svg">
<g clip-path="url(#clip0_66_2852)">
<path d="M49.4907 31.7373C54.8134 30.3111 57.9721 24.8401 56.5459 19.5174C55.1197 14.1947 49.6486 11.036 44.3259 12.4622C39.0033 13.8884 35.8445 19.3595 37.2707 24.6821C38.6969 30.0048 44.168 33.1635 49.4907 31.7373Z" fill="#494747" style="mix-blend-mode:color-dodge"/>
<path d="M58.4893 32.2774L41.9677 36.7044C39.0515 37.495 36.5666 39.4076 35.0559 42.0243C33.5451 44.641 33.1313 47.7492 33.9046 50.67L38.8628 69.1742C39.3631 71.0414 41.2396 72.2412 43.1231 71.8084C43.59 71.7014 44.0305 71.5014 44.4183 71.2203C44.8061 70.9393 45.1332 70.5829 45.3802 70.1725C45.6272 69.7622 45.7889 69.3062 45.8557 68.832C45.9225 68.3577 45.893 67.8748 45.7689 67.4122L41.17 50.2487C41.0704 49.8947 41.1084 49.5161 41.2763 49.1889C41.4441 48.8617 41.7295 48.6101 42.0751 48.4844C42.2601 48.4215 42.4561 48.3972 42.6508 48.4132C42.8456 48.4291 43.0349 48.4849 43.2072 48.5772C43.3795 48.6694 43.5309 48.7961 43.6522 48.9493C43.7734 49.1025 43.8619 49.279 43.9121 49.4679L57.238 99.2012C57.5193 100.251 58.2061 101.146 59.1474 101.689C60.0886 102.233 61.2072 102.38 62.257 102.099C63.3068 101.818 64.2018 101.131 64.7452 100.189C65.2887 99.2483 65.4359 98.1297 65.1546 97.0799L58.576 72.5282C58.4508 72.0854 58.4976 71.6117 58.7069 71.2019C58.9163 70.7921 59.2727 70.4766 59.7049 70.3185C59.9362 70.2395 60.1812 70.209 60.4248 70.2289C60.6683 70.2487 60.9052 70.3184 61.1207 70.4336C61.3362 70.5489 61.5257 70.7073 61.6773 70.8989C61.829 71.0905 61.9396 71.3112 62.0023 71.5474L68.5966 96.1576C68.8779 97.2074 69.5647 98.1025 70.506 98.6459C71.4472 99.1893 72.5657 99.3366 73.6155 99.0553C74.6653 98.774 75.5604 98.0872 76.1038 97.146C76.6472 96.2047 76.7945 95.0862 76.5132 94.0364L63.1987 44.3461C63.0992 43.9921 63.1372 43.6135 63.305 43.2863C63.4729 42.9591 63.7583 42.7075 64.1039 42.5819C64.2889 42.5189 64.4848 42.4946 64.6796 42.5106C64.8743 42.5265 65.0637 42.5824 65.236 42.6746C65.4082 42.7668 65.5597 42.8935 65.6809 43.0467C65.8022 43.1999 65.8907 43.3764 65.9408 43.5653L70.5301 60.6926C71.0304 62.5599 72.9068 63.7596 74.7904 63.3269C75.2575 63.2198 75.6983 63.0196 76.0862 62.7383C76.4742 62.4569 76.8015 62.1002 77.0484 61.6895C77.2953 61.2787 77.4568 60.8224 77.5233 60.3478C77.5898 59.8732 77.5598 59.39 77.4353 58.9272L72.455 40.3405C71.6643 37.4243 69.7518 34.9394 67.1351 33.4287C64.5184 31.9179 61.4101 31.504 58.4893 32.2774Z" fill="#494747" style="mix-blend-mode:color-dodge"/>
</g>
<defs>
<clipPath id="clip0_66_2852">
<rect width="91.2232" height="91.2232" fill="white" transform="translate(0.267822 24.2676) rotate(-15)"/>
</clipPath>
</defs>
</svg>
