<svg width="60" height="50" viewBox="0 0 60 50" fill="none" xmlns="http://www.w3.org/2000/svg">
<path d="M41.9986 31.999C39.4286 31.999 36.9436 30.8515 34.9986 28.769C33.1074 26.7378 31.9524 24.029 31.7486 21.144C31.5311 18.0665 32.4699 15.2365 34.3911 13.174C36.3124 11.1115 38.9986 9.99902 41.9986 9.99902C44.9774 9.99902 47.6711 11.1315 49.5861 13.189C51.5199 15.2665 52.4611 18.0915 52.2436 21.1428C52.0349 24.0315 50.8811 26.739 48.9936 28.7678C47.0536 30.8515 44.5699 31.999 41.9986 31.999Z" fill="#181818" style="mix-blend-mode:screen"/>
<path d="M58.4774 53.999H25.5211C24.9913 54.0019 24.4678 53.8831 23.9911 53.6519C23.5143 53.4206 23.097 53.0831 22.7711 52.6653C22.4255 52.2123 22.1868 51.687 22.073 51.1287C21.9591 50.5705 21.973 49.9937 22.1136 49.4415C23.1661 45.2153 25.7736 41.7103 29.6536 39.3065C33.0974 37.174 37.4811 35.999 41.9986 35.999C46.6049 35.999 50.8736 37.124 54.3374 39.2553C58.2261 41.6465 60.8374 45.1715 61.8849 49.449C62.0238 50.0016 62.0362 50.5784 61.921 51.1363C61.8059 51.6943 61.5662 52.2191 61.2199 52.6715C60.8944 53.0874 60.478 53.4233 60.0026 53.6534C59.5273 53.8835 59.0055 54.0017 58.4774 53.999Z" fill="#181818" style="mix-blend-mode:screen"/>
<path d="M18.3736 32.499C13.9749 32.499 10.1074 28.409 9.74864 23.3828C9.57114 20.8078 10.3736 18.4265 11.9986 16.6803C13.6061 14.9515 15.8736 13.999 18.3736 13.999C20.8736 13.999 23.1236 14.9565 24.7399 16.6953C26.3774 18.4553 27.1774 20.8315 26.9899 23.3853C26.6311 28.4103 22.7649 32.499 18.3736 32.499Z" fill="#181818" style="mix-blend-mode:screen"/>
<path d="M26.5811 36.4303C24.3824 35.3553 21.5286 34.8178 18.3749 34.8178C14.6924 34.8178 11.1161 35.7778 8.30364 37.5203C5.11489 39.499 2.96989 42.3803 2.10364 45.859C1.97687 46.3594 1.96488 46.882 2.06856 47.3876C2.17225 47.8933 2.38893 48.3689 2.70239 48.779C2.99982 49.1609 3.38087 49.4694 3.81622 49.6809C4.25157 49.8924 4.72963 50.0012 5.21364 49.999H19.0886C19.3228 49.999 19.5496 49.9168 19.7293 49.7667C19.9091 49.6166 20.0305 49.4082 20.0724 49.1778C20.0861 49.099 20.1036 49.0203 20.1236 48.9428C21.1836 44.6853 23.6674 41.0878 27.3374 38.4653C27.4724 38.368 27.5809 38.2385 27.6533 38.0887C27.7256 37.9388 27.7594 37.7733 27.7515 37.6071C27.7437 37.4409 27.6945 37.2792 27.6085 37.1368C27.5224 36.9944 27.4022 36.8757 27.2586 36.7915C27.0624 36.6765 26.8374 36.5553 26.5811 36.4303Z" fill="#181818" style="mix-blend-mode:screen"/>
</svg>
