<svg width="106" height="108" viewBox="0 0 106 108" fill="none" xmlns="http://www.w3.org/2000/svg">
<g opacity="0.8">
<path d="M70.5806 45.2198L82.5771 32.1194L82.1206 21.7393L71.7404 22.1958L60.5243 34.4439L70.5806 45.2198Z" fill="white" style="mix-blend-mode:overlay"/>
<path d="M56.4085 60.6958L49.7683 67.9469L38.9316 58.0232L46.3522 49.92L56.4085 60.6958Z" fill="white" style="mix-blend-mode:overlay"/>
<rect width="18.8923" height="2.99877" transform="matrix(-0.737493 -0.675355 -0.675355 0.737493 50.5056 70.248)" fill="white" style="mix-blend-mode:overlay"/>
<rect width="14.694" height="2.99877" transform="matrix(-0.737493 -0.675355 -0.675355 0.737493 41.2622 77.2344)" fill="white" style="mix-blend-mode:overlay"/>
<path d="M35.3303 77.4951L30.686 73.2421L23.2939 81.3144C22.1195 82.5968 22.2071 84.5886 23.4896 85.763C24.7721 86.9374 26.7638 86.8498 27.9382 85.5674L35.3303 77.4951Z" fill="white" style="mix-blend-mode:overlay"/>
<rect width="34.4859" height="5.99754" rx="2.99877" transform="matrix(-0.737493 -0.675355 -0.675355 0.737493 53.4211 78.6094)" fill="white" style="mix-blend-mode:overlay"/>
</g>
<path d="M34.1957 32.1185L67.0045 67.946L77.8412 58.0224L45.0324 22.1949L34.6522 21.7384L34.1957 32.1185Z" fill="white" style="mix-blend-mode:overlay"/>
<rect x="66.2671" y="70.248" width="18.8923" height="2.99877" transform="rotate(-42.4817 66.2671 70.248)" fill="white" style="mix-blend-mode:overlay"/>
<rect x="75.5105" y="77.2334" width="14.694" height="2.99877" transform="rotate(-42.4817 75.5105 77.2334)" fill="white" style="mix-blend-mode:overlay"/>
<path d="M81.4424 77.4951L86.0867 73.2421L93.4788 81.3144C94.6532 82.5968 94.5656 84.5886 93.2831 85.763C92.0006 86.9374 90.0089 86.8498 88.8345 85.5674L81.4424 77.4951Z" fill="white" style="mix-blend-mode:overlay"/>
<rect x="63.3521" y="78.6094" width="34.4859" height="5.99754" rx="2.99877" transform="rotate(-42.4817 63.3521 78.6094)" fill="white" style="mix-blend-mode:overlay"/>
</svg>
